<?xml version="1.0" encoding="utf-8"?>
<!DOCTYPE svg PUBLIC "-//W3C//DTD SVG 1.0//EN" "http://www.w3.org/TR/2001/REC-SVG-20010904/DTD/svg10.dtd">
<svg version="1.0" xmlns="http://www.w3.org/2000/svg" xmlns:xlink="http://www.w3.org/1999/xlink" x="0px" y="0px" width="250px"
	 height="250px" viewBox="0 0 250 250" enable-background="new 0 0 250 250" xml:space="preserve">

<defs>
<style type="text/css">

.fuente {
	font-family: 'Trebuchet MS', Helvetica, sans-serif;
	text-anchor:middle;
	font-size:40px;
	fill:#FFFFFF;
}

.color1 {
	fill:#0066CC;
}

.color2 {
	fill:#FFFFFF;
}


</style>

<symbol id="T1">
	<path d="M66.2,153.5v-5.1c11.8-0.8,13.2-3,13.2-13.6V80.3c0-7.8-0.6-8.8-6.8-9.3L65,70.4v-4.3c9.9-1.5,21-4.2,34.2-7.8v76.5
		c0,10.3,1.1,12.9,13,13.6v5.1H66.2z"/>
	<path d="M162.4,94.9c-5.3,8-12.2,9.7-15.7,9.7c-11.6,0-18.1-8.7-18.1-18.7c0-6.6,2.8-12.2,6.5-15.8c3.8-3.8,8.7-6.2,13.5-6.2
		c8,0,14.3,6.9,14.2,14.1c0,1.7-0.5,2.9-2.5,3.1c-1.6,0.2-12.2,1-20.8,1.4c0.4,9.4,5.6,14.1,11.8,14.1c3.4,0,6.6-1.1,9.7-3.8
		L162.4,94.9z M139.8,78.4c3.6-0.1,6.8-0.2,10.4-0.3c1.3-0.1,1.7-0.3,1.8-1.7c0-4.5-1.9-9-5.3-9C143.3,67.4,140.3,71.4,139.8,78.4z
		"/>
	<path d="M183.2,73.1c3.1-5.4,6.6-9.2,9.8-9.2c3.5,0,5.9,2.4,5.9,5.4c0,3.1-1.9,5.6-4.3,6.5c-1.2,0.4-2.1,0.2-2.7-0.3
		c-1.5-1.2-2.5-1.8-4-1.8c-1.7,0-3.4,1.1-4.9,4.5v16.3c0,5.4,0.5,5.8,7.3,6.4v2.8h-24v-2.8c4.7-0.5,5.6-1,5.6-6.4V75.3
		c0-4.5-0.7-4.8-4.7-5.8v-2.4c5.2-0.7,10.4-1.7,15.8-3.3v9.3H183.2z"/>
</symbol>

<symbol id="T2">
	<path d="M111.3,129.1c-2.4,8.7-4.2,18.1-5.9,24.4H45.3v-3.9c7.9-7.8,16.6-16,24-24.7c10.5-12.4,16.5-23.7,16.5-35.1
		c0-10.3-5.4-17.8-15.7-17.8c-9,0-15.1,6.3-20.1,13.3l-4.3-3.6l9.6-14.1c5.7-5.5,13.2-9.3,22.6-9.3c14.8,0,27.3,10,27.3,26.7
		c0,11.8-6.1,21.1-21,35.2l-18,17.1h24.4c9,0,10.2-0.3,15.7-10L111.3,129.1z"/>
	<path d="M162.7,101.3c-2.1,0.3-10.3,1.4-17.2,3.4v-5.1l-5.2,3.4c-2.2,1.3-3.4,1.6-4.5,1.6c-7.4,0-17.8-6.1-17.8-19.2
		c0-11.9,10.3-21.6,24-21.6c0.7,0,1.7,0.2,3.6,0.4V53.7c0-4.7-0.5-5.2-5.9-5.8v-2.7c5.6-0.7,12.6-1.8,17.1-3.1v50.5
		c0,5,0.4,5.3,4.1,5.8l1.9,0.2V101.3z M145.4,72.1c-1.4-3.1-3.8-4.5-6.3-4.5c-2.1,0-8.8,2.3-8.8,15.6c0.1,10.8,6.3,14.9,10.3,14.9
		c1.6,0,2.9-0.2,4.8-1.4V72.1z"/>
	<path d="M207.1,83.5c0,14.1-10.1,21.1-20.3,21.1c-13.7,0-20.5-10-20.5-19.5c0-14.1,11.1-21.3,20.8-21.3
		C199.4,63.9,207.1,73.1,207.1,83.5z M178.9,82c0,10.8,3.4,19.2,8.9,19.2c3.3,0,6.8-2.2,6.8-15c0-12.2-3.1-18.9-8.6-18.9
		C182.3,67.3,178.9,71.9,178.9,82z"/>
</symbol>

<symbol id="T3">
	<path d="M59.3,77.6l7.4-10c4.3-4.6,11.4-9.3,21.4-9.3c15.4,0,24.4,8.5,24.4,20.2c0,4-1.9,7.5-4.8,10c-2.7,2.4-6,4.5-11.1,7.6v0.3
		c14.7,2.5,22.3,12.4,22.3,23.7c-0.1,24.4-32.7,35.1-42,35.1c-7.6,0-13.8-2.5-16.8-4.9c-2.4-2-3.5-4.1-3.5-6c0-2.8,2.4-5.4,4.4-6.9
		c1.8-1.3,3.6-1.6,5.7-0.1c3.3,2.8,10.3,9.6,19.2,9.6c7.6,0,13.5-6.1,13.5-20.2c0-14.4-9.9-19.5-18-19.5c-2.7,0-5.8,0.5-8.1,1
		l-1-5.1C85,98.9,94,92.9,94,83.6C94,73.9,87.8,70,81.1,70c-7.5,0-12.7,4.2-17.8,11.2L59.3,77.6z"/>
	<path d="M162.4,94.9c-5.3,8-12.2,9.7-15.7,9.7c-11.6,0-18.1-8.7-18.1-18.7c0-6.6,2.8-12.2,6.5-15.8c3.8-3.8,8.7-6.2,13.5-6.2
		c8,0,14.3,6.9,14.2,14.1c0,1.7-0.5,2.9-2.5,3.1c-1.6,0.2-12.2,1-20.8,1.4c0.4,9.4,5.6,14.1,11.8,14.1c3.4,0,6.6-1.1,9.7-3.8
		L162.4,94.9z M139.8,78.4c3.6-0.1,6.8-0.2,10.4-0.3c1.3-0.1,1.7-0.3,1.8-1.7c0-4.5-1.9-9-5.3-9C143.3,67.4,140.3,71.4,139.8,78.4z
		"/>
	<path d="M183.2,73.1c3.1-5.4,6.6-9.2,9.8-9.2c3.5,0,5.9,2.4,5.9,5.4c0,3.1-1.9,5.6-4.3,6.5c-1.2,0.4-2.1,0.2-2.7-0.3
		c-1.5-1.2-2.5-1.8-4-1.8c-1.7,0-3.4,1.1-4.9,4.5v16.3c0,5.4,0.5,5.8,7.3,6.4v2.8h-24v-2.8c4.7-0.5,5.6-1,5.6-6.4V75.3
		c0-4.5-0.7-4.8-4.7-5.8v-2.4c5.2-0.7,10.4-1.7,15.8-3.3v9.3H183.2z"/>
</symbol>

<symbol id="T4">
	<path d="M109.6,127.4v9.4c0,9,1.1,10.5,12.1,11.5v5.1H77.1v-5.1c12.7-1,13.5-3.2,13.5-12.3v-8.7H52.5v-6.2
		c16.2-22.9,32.1-44.5,46.3-62.1h10.8v59.7h13.5v8.5H109.6z M90.6,79.6h-0.3c-7.2,9.9-16.8,23.7-26.5,39.3h26.8V79.6z"/>
	<path d="M146.9,103.7c-1.6,0.6-3,1-3.6,1c-6.7,0-10.7-3.1-10.7-11V69.1h-5.5l-0.4-1l2.4-3.1h3.5v-6.4l9.9-6.8l1.2,0.5v12.7h8.6
		c1,1,0.9,3.5-0.5,4.2h-8v21.6c0,6.8,3.1,7.6,5,7.6c1.5,0,2.9-0.3,4.4-1l0.9,3.1L146.9,103.7z"/>
	<path d="M197.2,83.5c0,14.1-10.1,21.1-20.3,21.1c-13.7,0-20.5-10-20.5-19.5c0-14.1,11.1-21.3,20.8-21.3
		C189.5,63.9,197.2,73.1,197.2,83.5z M169,82c0,10.8,3.4,19.2,8.9,19.2c3.3,0,6.8-2.2,6.8-15c0-12.2-3.1-18.9-8.6-18.9
		C172.5,67.3,169,71.9,169,82z"/>
</symbol>

</defs>

<rect width="250" height="250" class="color1"/>
<use xlink:href="#T1" class="color2"/>
<text class="fuente" transform="matrix(1 0 0 1 125 210)">trimestre</text>

</svg>
